# xmcd
#
# Track frame offsets: 
#        150
#        26275
#        46888
#        61388
#        78938
#        97550
#        120938
#        135638
#        155475
#        175700
#
# Disc length: 2596 seconds
#
# Revision: 0
# Processed by: cddbd v1.5.1PL0 Copyright (c) Steve Scherf et al.
# Submitted via: ExactAudioCopy v0.95a5
#
DISCID=660a220a
DTITLE=¶À¤pµ[ - Savon Huang Vol.2 - Over The Rainbow
DYEAR=1994
DGENRE=Pop
TTITLE0=Over The Rainbow
TTITLE1=How Deep Is Your Love
TTITLE2=Quando Quando Quando
TTITLE3=Love Me Tender
TTITLE4=AnyThing For You
TTITLE5=Relax
TTITLE6=Just The Way You Are
TTITLE7=When I Fall In Love
TTITLE8=My Funny Valentine
TTITLE9=Close To You
EXTD=
EXTT0=
EXTT1=
EXTT2=
EXTT3=
EXTT4=
EXTT5=
EXTT6=
EXTT7=
EXTT8=
EXTT9=
PLAYORDER=
